# xmcd
#
# Track frame offsets:
# 150
# 14687
# 33232
# 48684
# 61857
# 87040
# 103777
# 121680
# 139165
# 156503
# 173843
# 190819
# 206427
# 226786
# 238582
#
# Disc length: 3378 seconds
#
#
# Revision: 8
# Processed by: cddbd v1.5.1PL0 Copyright (c) Steve Scherf et al.
# Submitted via: FreeRIP 2.942 
#
DISCID=c30d300f
DTITLE=Leonardo - Te amo demais
DYEAR=2002
DGENRE=Sertanejo
TTITLE0=Te amo demais
TTITLE1=Tudo me lembra você
TTITLE2=E não vou mais deixar você tão só
TTITLE3=Ei, pissiu!!!
TTITLE4=Do fundo do meu coração
TTITLE5=Virtudes e defeitos
TTITLE6=Tua sombra em meu caminho
TTITLE7=Feito tatuagem
TTITLE8=Seu
TTITLE9=Amarrado e carimbado
TTITLE10=Pedaços de paixão
TTITLE11=A malvada
TTITLE12=Viajei
TTITLE13=Fome de amor
TTITLE14=Vem sonhar
EXTD=YEAR: 2002
EXTT0=
EXTT1=
EXTT2=
EXTT3=
EXTT4=
EXTT5=
EXTT6=
EXTT7=
EXTT8=
EXTT9=
EXTT10=
EXTT11=
EXTT12=
EXTT13=
EXTT14=
PLAYORDER=
